# Blender v2.79 (sub 0) OBJ File: ''
# www.blender.org
mtllib cube.mtl
o cube
# A
v -1.000000 -1.000000 0.000000
# B
v 1.000000 -1.000000 0.000000
# C
v 1.000000 1.000000 0.000000
# D
v -1.000000 1.000000 0.000000
# E
v -1.000000 -1.000000 2.000000
# F
v 1.000000 -1.000000 2.000000
# G
v 1.000000 1.000000 2.000000
# H
v -1.000000 1.000000 2.000000
# f0 vn
vn 0.0000 0.0000 -1.0000
# f1 vn
vn 0.0000 -1.0000 0.0000
# f2 vn
vn 1.0000 0.0000 0.0000
# f3 vn
vn 0.0000 1.0000 0.0000
# f4 vn
vn -1.0000 0.0000 0.0000
# f5 vn
vn 0.0000 0.0000 1.0000
usemtl None
s off
# f0
f 4//1 3//1 2//1 1//1
# f1
f 2//2 6//2 5//2 1//2
# f2
f 3//3 7//3 6//3 2//3
# f3
f 4//4 8//4 7//4 3//4
# f4
f 1//5 5//5 8//5 4//5
# f5
f 6//6 7//6 8//6 5//6