<?xml version="1.0" encoding="iso-8859-1"?>
<!-- Generator: Adobe Illustrator 16.0.0, SVG Export Plug-In . SVG Version: 6.00 Build 0)  -->
<!DOCTYPE svg PUBLIC "-//W3C//DTD SVG 1.1//EN" "http://www.w3.org/Graphics/SVG/1.1/DTD/svg11.dtd">
<svg version="1.1" id="Capa_1" xmlns="http://www.w3.org/2000/svg" xmlns:xlink="http://www.w3.org/1999/xlink" x="0px" y="0px"
	 width="725.334px" height="725.334px" viewBox="0 0 725.334 725.334" style="enable-background:new 0 0 725.334 725.334;"
	 xml:space="preserve">
<g>
	<g id="Out">
		<g>
			<path stroke="white" fill="white" d="M249.333,181.333c9.384,0,17.884-3.808,24.049-9.973l55.284-55.284v371.258c0,18.768,15.209,34,34,34
				c18.791,0,34-15.232,34-34V116.076l55.307,55.284c6.143,6.166,14.643,9.973,24.026,9.973c18.791,0,34-15.232,34-34
				c0-9.384-3.808-17.884-9.95-24.049L386.717,9.951C380.551,3.808,372.051,0,362.667,0s-17.884,3.808-24.027,9.973L225.307,123.307
				c-6.166,6.143-9.974,14.643-9.974,24.026C215.333,166.101,230.543,181.333,249.333,181.333z M623.334,226.667H498.667
				c-18.791,0-34,15.232-34,34s15.209,34,34,34h102v362.667h-476V294.667h102c18.791,0,34-15.232,34-34s-15.209-34-34-34H102
				c-25.001,0-45.333,20.354-45.333,45.333v408c0,24.979,20.332,45.334,45.333,45.334h521.333c25.001,0,45.333-20.355,45.333-45.334
				V272C668.667,247.021,648.335,226.667,623.334,226.667z"/>
		</g>
	</g>
</g>
<g>
</g>
<g>
</g>
<g>
</g>
<g>
</g>
<g>
</g>
<g>
</g>
<g>
</g>
<g>
</g>
<g>
</g>
<g>
</g>
<g>
</g>
<g>
</g>
<g>
</g>
<g>
</g>
<g>
</g>
</svg>
