# Blender v2.79 (sub 0) OBJ File: ''
# www.blender.org
mtllib axes.mtl
o axes
v 1.000000 -1.000000 1.000000
v -1.000000 -1.000000 1.000000
v -1.000000 -1.000000 -1.000000
v 1.000000 -1.000000 -1.000000
v 0.999999 1.000000 1.000000
v -1.000000 1.000000 1.000000
v -1.000000 1.000000 -1.000000
v 3.000000 1.000000 1.000000
v 3.000000 1.000000 -0.999999
v 1.000000 1.000000 -0.999999
v 3.000000 -1.000000 1.000000
v 3.000000 -1.000000 -0.999999
v 1.000000 1.000000 -3.000000
v -0.999999 1.000000 -3.000000
v -0.999999 -1.000000 -3.000000
v 1.000000 -1.000000 -3.000000
v -1.000000 3.000000 -1.000000
v -1.000000 3.000000 1.000000
v 0.999999 3.000000 1.000000
v 1.000000 3.000000 -0.999999
vn 0.0000 -1.0000 -0.0000
vn 0.0000 -0.0000 1.0000
vn -1.0000 0.0000 0.0000
vn 0.0000 1.0000 0.0000
vn 0.0000 0.0000 -1.0000
vn 1.0000 0.0000 0.0000
usemtl None
s off
f 1//1 2//1 3//1 4//1
f 5//2 6//2 2//2 1//2
f 7//3 3//3 2//3 6//3
f 5//4 8//4 9//4 10//4
f 11//2 8//2 5//2 1//2
f 10//5 9//5 12//5 4//5
f 12//1 11//1 1//1 4//1
f 9//6 8//6 11//6 12//6
f 7//4 10//4 13//4 14//4
f 7//3 14//3 15//3 3//3
f 16//6 13//6 10//6 4//6
f 3//1 15//1 16//1 4//1
f 15//5 14//5 13//5 16//5
f 17//3 7//3 6//3 18//3
f 19//2 18//2 6//2 5//2
f 7//5 17//5 20//5 10//5
f 20//6 19//6 5//6 10//6
f 17//4 18//4 19//4 20//4
